<svg width="40" height="26" viewBox="0 0 40 26" fill="none" xmlns="http://www.w3.org/2000/svg">
<path d="M20.5196 9.45753C20.5196 4.23428 24.8681 0 30.2333 0C35.5984 0 39.4925 4.08837 39.9469 9.29309C40.6406 17.235 34.4438 23.8845 26.9205 26C29.4849 24.4904 31.2737 21.8648 31.5721 18.8113C31.1329 18.872 30.6886 18.9151 30.2333 18.9151C24.8681 18.9151 20.5196 14.6813 20.5196 9.45753Z" fill="#00C368"/>
<path d="M-7.46696e-06 9.45753C-7.46696e-06 4.23428 4.34846 0 9.71411 0C15.0788 0 18.9734 4.08837 19.4282 9.29309C20.1219 17.235 13.9251 23.8845 6.40137 26C8.96573 24.4904 10.7541 21.8648 11.0529 18.8113C10.6138 18.872 10.1689 18.9151 9.71411 18.9151C4.34846 18.9151 -7.46696e-06 14.6813 -7.46696e-06 9.45753Z" fill="#00C368"/>
</svg>
