<svg width="40" height="40" viewBox="0 0 40 40" fill="none" xmlns="http://www.w3.org/2000/svg">
<rect width="40" height="40" rx="20" fill="#E7EBF0"/>
<rect x="0.5" y="0.5" width="39" height="39" rx="19.5" stroke="url(#paint0_linear_1_202)" stroke-opacity="0.3" style="mix-blend-mode:hard-light"/>
<rect x="15" y="15" width="1" height="10" fill="#2E3A59"/>
<rect x="15" y="15" width="1" height="10" fill="#2E3A59"/>
<rect x="15" y="15" width="1" height="10" fill="#2E3A59"/>
<rect x="20.5671" y="9.35779" width="1" height="13.3677" transform="rotate(30 20.5671 9.35779)" fill="#2E3A59"/>
<rect x="20.5671" y="9.35779" width="1" height="13.3677" transform="rotate(30 20.5671 9.35779)" fill="#2E3A59"/>
<rect x="20.5671" y="9.35779" width="1" height="13.3677" transform="rotate(30 20.5671 9.35779)" fill="#2E3A59"/>
<rect x="25.1424" y="13.567" width="1" height="12.077" transform="rotate(60 25.1424 13.567)" fill="#2E3A59"/>
<rect x="25.1424" y="13.567" width="1" height="12.077" transform="rotate(60 25.1424 13.567)" fill="#2E3A59"/>
<rect x="25.1424" y="13.567" width="1" height="12.077" transform="rotate(60 25.1424 13.567)" fill="#2E3A59"/>
<rect x="25.6423" y="25.5671" width="1" height="13.1329" transform="rotate(120 25.6423 25.5671)" fill="#2E3A59"/>
<rect x="25.6423" y="25.5671" width="1" height="13.1329" transform="rotate(120 25.6423 25.5671)" fill="#2E3A59"/>
<rect x="25.6423" y="25.5671" width="1" height="13.1329" transform="rotate(120 25.6423 25.5671)" fill="#2E3A59"/>
<rect x="21.433" y="30.1423" width="1" height="15.5875" transform="rotate(150 21.433 30.1423)" fill="#2E3A59"/>
<rect x="21.433" y="30.1423" width="1" height="15.5875" transform="rotate(150 21.433 30.1423)" fill="#2E3A59"/>
<rect x="21.433" y="30.1423" width="1" height="15.5875" transform="rotate(150 21.433 30.1423)" fill="#2E3A59"/>
<rect x="6" y="13" width="14" height="14" rx="7" fill="#E7EBF0"/>
<rect x="12" y="8" width="1" height="24" fill="#2E3A59"/>
<path d="M27 20H20" stroke="#2E3A59"/>
<path d="M17.5 20C17.5 22.869 15.3032 25.225 12.5 25.4776V14.5224C15.3032 14.775 17.5 17.131 17.5 20Z" fill="white" stroke="#2E3A59"/>
<rect x="20.5" y="6.5" width="3" height="3" rx="1.5" fill="#FFD058" stroke="#2E3A59"/>
<rect x="25.5" y="11.5" width="3" height="3" rx="1.5" fill="#FFD058" stroke="#2E3A59"/>
<rect x="26.5" y="18.5" width="3" height="3" rx="1.5" fill="#FFD058" stroke="#2E3A59"/>
<rect x="25.5" y="25.5" width="3" height="3" rx="1.5" fill="#FFD058" stroke="#2E3A59"/>
<rect x="20.5" y="30.5" width="3" height="3" rx="1.5" fill="#FFD058" stroke="#2E3A59"/>
<defs>
<linearGradient id="paint0_linear_1_202" x1="41.5385" y1="40.7692" x2="-2.15385" y2="-1.23077" gradientUnits="userSpaceOnUse">
<stop stop-color="white"/>
<stop offset="1" stop-color="white" stop-opacity="0"/>
</linearGradient>
</defs>
</svg>
